<svg xmlns="http://www.w3.org/2000/svg" width="791.883" height="112.515" viewBox="0 0 791.883 112.515">
  <g id="kantodex-logo" transform="translate(-4229.834 -112.635)">
    <path id="Path_10" data-name="Path 10" d="M425.018,110.281c-6.19-1.522-11.021-3.455-14.522-6.144s-6.53-5.557-7.9-9.362-2.792-8.042-2.792-12.71V32.4a42.949,42.949,0,0,1,2.314-13.646c1.37-3.805,4.878-7.714,8.379-10.454s9.211-4.941,15.4-6.464S436.807,0,446.244,0s16.284.313,22.423,1.835,11.58,3.724,15.081,6.464,6.929,6.648,8.3,10.454A42.943,42.943,0,0,1,494.283,32.4V82.065c0,4.667-1.5,8.9-2.873,12.71s-4.319,6.673-7.82,9.362-7.745,4.622-13.884,6.144-12.667,2.235-22.1,2.235S431.208,111.8,425.018,110.281Zm14.745-73.893c-.573.778-.31,2.172-.31,4.1v28.5c0,2.03-.4,6.512.567,7.3s1.931,1.251,7.411,1.251,6.4-.754,6.985-1.251.446-3.362.446-5.391V42.485c0-1.928.293-5.113-.4-6.1s-2.021-1.356-7.5-1.356S440.336,35.61,439.763,36.388Zm-329.624,74.13a8.94,8.94,0,0,1-4.93-1.469,8.287,8.287,0,0,1-3.376-5.953l-.523-37.544a45.581,45.581,0,0,1,1.463-10.625,117.312,117.312,0,0,1,4.543-14.014L119.887,8.771a12.9,12.9,0,0,1,3.5-4.665,14.922,14.922,0,0,1,5.647-2h38.794a13.038,13.038,0,0,1,6.445,1.571,10.213,10.213,0,0,1,3.867,4.052l12.947,33.184a117.126,117.126,0,0,1,4.542,14.014,45.539,45.539,0,0,1,1.463,10.625l-.546,37.544c0,1.95-1.351,3.866-2.271,5.033a8.5,8.5,0,0,1-5.558,2.39H165.29s-4.54-.4-6.175-2.724-2.038-3.607-2.038-5.557l-.246-16.1H140.442v16.1a9.336,9.336,0,0,1-1.945,5.415c-2.012,2.6-6.062,2.905-6.062,2.905Zm33.055-57.88,11.009.028L149.4,37.16h-1.369Zm612.234,55.706a8.4,8.4,0,0,1-2.772-6.417c0-15.917-.084-16.4-.084-16.4-.022-.246-.043-.466-.11-.924a4.59,4.59,0,0,0-.625-1.028l-6.328-9.048h-1.141l-6.476,9.048a3.3,3.3,0,0,0-.629,1.028,10.427,10.427,0,0,0-.163,1.726v15.641a9.9,9.9,0,0,1-2.216,5.925c-2.192,2.4-6.07,2.474-6.07,2.474H707.024s-4.062.13-6.427-2.025a9.3,9.3,0,0,1-2.733-5.229V86.33a47.583,47.583,0,0,1,.763-8.726c.849-4.418,4.713-9.913,4.713-9.913l10.115-13.61-9.736-13.065a30.542,30.542,0,0,1-4.864-9.207c-.76-2.713-.992-7.185-.992-11.8V10.514a9.039,9.039,0,0,1,2.677-6.456,9.151,9.151,0,0,1,6.078-2.044h21.156s4.395-.321,7.108,2.125,2.478,6.852,2.478,6.852v10.2a20.06,20.06,0,0,0,.211,2.36l.407.734,6.547,9.359h.781s6.163-8.556,6.765-9.359a3.153,3.153,0,0,0,.375-.734,15.245,15.245,0,0,0,.193-2.36v-10.2s-.086-4.591,2.536-6.852a9.242,9.242,0,0,1,5.864-2.125h21.2s4.751-.4,7.361,2.444a8.762,8.762,0,0,1,2.265,6.281V23.458a42.752,42.752,0,0,1-1.077,8.317,40.3,40.3,0,0,1-3.569,7.646l-11,14.809,10.481,13.9a25.427,25.427,0,0,1,4.085,8.174c1.2,4.527,1,12.338,1,12.338v12.717a8.923,8.923,0,0,1-1.724,6.042c-2.163,2.919-6.318,2.971-6.318,2.971H761.531a4.708,4.708,0,0,1-.727.047A8.319,8.319,0,0,1,755.428,108.345ZM61.844,110.361a6.4,6.4,0,0,1-5.746-3.112c-1.356-2.394-1.436-2.692-1.436-4.629L54.709,73.7c.055-.149.144-.169-.048-.208a.692.692,0,0,0-.3.036,2.322,2.322,0,0,1-1.057-.036H39.74V102.62c0,1.937-1.687,4.72-2.554,5.586a6.567,6.567,0,0,1-4.388,2.155H7.9a9.214,9.214,0,0,1-5.427-2.155A10.329,10.329,0,0,1,0,102.62L.057,9.71a6.122,6.122,0,0,1,2.5-5.4c2-1.356,2.931-2.394,4.867-2.394H31.68a10.011,10.011,0,0,1,5.505,2.394c.867.867,2.554,3.465,2.554,5.4V36.547L52.586,7.82a9.035,9.035,0,0,1,3.352-4.149,17.939,17.939,0,0,1,6.783-1.756H85.3a7.437,7.437,0,0,1,5.665,3.591c1.038,2.075.314,5.232-.4,6.862L78.6,40.218c5.027,1.038,7.2,3.063,10.614,6.782s4.867,9.815,4.93,15.663V102.62a10.319,10.319,0,0,1-2.457,5.586,11.216,11.216,0,0,1-5.88,2.177Zm228.693-.043h-21.3s-4.019.107-6.319-2.257a9.994,9.994,0,0,1-2.524-5.68V85.7L244.753,66.711l-.13,34.818s-.072,4.25-2.325,6.438-6.356,2.316-6.356,2.316H214.332s-3.959.219-6.32-2.316a8.792,8.792,0,0,1-2.325-5.586l-.035-91.7a8.961,8.961,0,0,1,2.507-6.4,9.1,9.1,0,0,1,6.574-2.275H229.7a17.514,17.514,0,0,1,5.92,1.2,23.515,23.515,0,0,1,3.959,2.978l20.884,23.864v-19.9s.138-3.881,2.652-6.06a9.064,9.064,0,0,1,5.673-2.08H290.98a8.567,8.567,0,0,1,5.969,2.275,8.1,8.1,0,0,1,2.4,6.4v91.7a8.933,8.933,0,0,1-2.579,5.83,9.216,9.216,0,0,1-5.98,2.112C290.626,110.323,290.536,110.318,290.536,110.318Zm320.5-1.633a7.842,7.842,0,0,1-2.952-6.544L608,10.693c0-1.9.718-5.108,2.793-6.783A10.618,10.618,0,0,1,617.5,2L683.04,2.1a8.553,8.553,0,0,1,5.393,2.365,7,7,0,0,1,2.16,5.267V27.689c0,1.9-.878,4.948-2.16,6.065s-3.5,2.474-5.393,2.474H647.182v2.793h23.723a9.972,9.972,0,0,1,6.2,2.314,10.035,10.035,0,0,1,2.315,6.224V62.8c0,1.9-.4,4.867-2.315,6.7a9.019,9.019,0,0,1-6.2,2.473H647.182v3.99H683.04a9.83,9.83,0,0,1,5.393,2.394,10.1,10.1,0,0,1,2.16,5.506v18.274a10.162,10.162,0,0,1-2.16,5.985c-1.282,1.436-4.8,2.155-6.7,2.155H619.173c-.543,0-1.232.033-2,.033A9.856,9.856,0,0,1,611.033,108.685Zm-104.61-.6c-2.455-2.455-2.456-7.059-2.456-7.059V9.946A9.32,9.32,0,0,1,507.3,3.67a10.251,10.251,0,0,1,6.384-1.755h46.6c12.6,0,22.563,3.164,28.517,8.379s9.515,12.1,9.515,22.47V78.441c0,10.374-3.56,18.538-9.515,23.694s-15.023,8.164-27.622,8.164H513.544s-.129.007-.355.007C512.054,110.306,508.47,110.136,506.424,108.089Zm37.259-32.042L556.506,76a3.412,3.412,0,0,0,1.831-.546c.508-.508.514-2.288.514-2.288V39.308s-.094-1.856-.586-2.285a3.41,3.41,0,0,0-1.759-.407H543.741ZM332.95,108.212c-2.517-2.087-2.411-6.875-2.411-6.875V36.787H312.65a8.911,8.911,0,0,1-5.173-2.05c-.851-.85-2.554-3.033-2.554-4.935V10.613a8.813,8.813,0,0,1,2.726-6.667c2.234-2,5.783-1.957,5.783-1.957l73.5-.016c1.9,0,5.107.036,7.384,2.506a9.854,9.854,0,0,1,2.241,6.1V29a10.921,10.921,0,0,1-2.241,5.4c-1.984,2.4-5.9,2.459-5.9,2.459H371.012v65.155a9.958,9.958,0,0,1-2.277,5.893,8.349,8.349,0,0,1-5.8,2.29h-24.4A9.287,9.287,0,0,1,332.95,108.212Z" transform="translate(4229.834 112.635)"/>
    <path id="Path_11" data-name="Path 11" d="M29.446,72.29H7.846a5.258,5.258,0,0,1-3.832-1.185,5.258,5.258,0,0,1-1.185-3.832v-90.3A5.258,5.258,0,0,1,4.014-26.86a5.258,5.258,0,0,1,3.832-1.185h21.6a5.258,5.258,0,0,1,3.832,1.185,5.258,5.258,0,0,1,1.185,3.832V9.023h5.574L54.39-23.446A6.984,6.984,0,0,1,57.038-27a8.04,8.04,0,0,1,4.32-1.045h21.46q2.369,0,3.205,1.185t-.139,3.414L71.67,9.023a17.455,17.455,0,0,1,12.472,5.5q4.668,5.086,4.668,13.448v39.3a5.258,5.258,0,0,1-1.185,3.832,5.258,5.258,0,0,1-3.832,1.185H62.333A5.258,5.258,0,0,1,58.5,71.105a5.258,5.258,0,0,1-1.185-3.832V40.1A5.063,5.063,0,0,0,56.2,36.615a4.244,4.244,0,0,0-3.344-1.254H34.462V67.273a5.258,5.258,0,0,1-1.185,3.832A5.258,5.258,0,0,1,29.446,72.29ZM143.158,1.22,136.609,22.4h21.879L151.938,1.22a5.3,5.3,0,0,0-1.185-1.812,2.134,2.134,0,0,0-1.463-.557h-3.484a2.134,2.134,0,0,0-1.463.557A5.3,5.3,0,0,0,143.158,1.22Zm-7.943,66.054a5.258,5.258,0,0,1-1.185,3.832A5.258,5.258,0,0,1,130.2,72.29H109.713a5.258,5.258,0,0,1-3.832-1.185,5.258,5.258,0,0,1-1.185-3.832V30.484a41.227,41.227,0,0,1,1.324-9.615,106.038,106.038,0,0,1,4.111-12.681l12.124-31.633a6.537,6.537,0,0,1,2.578-3.484,8.28,8.28,0,0,1,4.529-1.115h37.486a8,8,0,0,1,4.39,1.115,6.538,6.538,0,0,1,2.578,3.484L185.94,8.187a106.037,106.037,0,0,1,4.111,12.681,41.226,41.226,0,0,1,1.324,9.615V67.273a5.258,5.258,0,0,1-1.185,3.832,5.258,5.258,0,0,1-3.832,1.185H165.315a6.035,6.035,0,0,1-4.111-1.185,4.91,4.91,0,0,1-1.324-3.832V47.764H135.215Zm99.22,5.017h-20.9a5.258,5.258,0,0,1-3.832-1.185,5.258,5.258,0,0,1-1.185-3.832v-90.3A5.258,5.258,0,0,1,209.7-26.86a5.258,5.258,0,0,1,3.832-1.185h14.493a11.105,11.105,0,0,1,4.529.836,10.883,10.883,0,0,1,3.693,2.926L263.281,6.654V-23.028a5.258,5.258,0,0,1,1.185-3.832,5.258,5.258,0,0,1,3.832-1.185h20.9a5.259,5.259,0,0,1,3.832,1.185,5.259,5.259,0,0,1,1.184,3.832v90.3a5.259,5.259,0,0,1-1.184,3.832A5.259,5.259,0,0,1,289.2,72.29H268.3a5.258,5.258,0,0,1-3.832-1.185,5.258,5.258,0,0,1-1.185-3.832V50.133L239.452,21.287V67.273a5.258,5.258,0,0,1-1.185,3.832A5.258,5.258,0,0,1,234.435,72.29Zm126.394,0H338.253a5.258,5.258,0,0,1-3.832-1.185,5.258,5.258,0,0,1-1.185-3.832V-1.149H312.752a5.259,5.259,0,0,1-3.832-1.185,5.259,5.259,0,0,1-1.184-3.832V-23.028a5.259,5.259,0,0,1,1.184-3.832,5.259,5.259,0,0,1,3.832-1.185h73.579a5.259,5.259,0,0,1,3.832,1.185,5.258,5.258,0,0,1,1.185,3.832V-6.166a5.258,5.258,0,0,1-1.185,3.832,5.259,5.259,0,0,1-3.832,1.185H365.846V67.273a5.258,5.258,0,0,1-1.185,3.832A5.259,5.259,0,0,1,360.829,72.29ZM489.174,45.952a34.159,34.159,0,0,1-1.881,11.636,19.454,19.454,0,0,1-6.689,8.919Q475.8,70.2,467.365,72.29t-21.391,2.09a91.939,91.939,0,0,1-21.46-2.09q-8.5-2.09-13.308-5.783a19.454,19.454,0,0,1-6.689-8.919,34.159,34.159,0,0,1-1.881-11.636V-1.567A34.159,34.159,0,0,1,404.516-13.2a19.875,19.875,0,0,1,6.689-8.988q4.808-3.763,13.308-5.853a91.939,91.939,0,0,1,21.46-2.09q12.96,0,21.391,2.09T480.6-22.192a19.876,19.876,0,0,1,6.689,8.988,34.159,34.159,0,0,1,1.881,11.636Zm-54.905-5.017a6.027,6.027,0,0,0,2.09,4.668q2.09,1.881,9.615,1.881t9.615-1.881a6.027,6.027,0,0,0,2.09-4.668V3.449a5.882,5.882,0,0,0-2.09-4.529q-2.09-1.881-9.615-1.881T436.359-1.08a5.882,5.882,0,0,0-2.09,4.529ZM558.85,72.29H511.888a5.258,5.258,0,0,1-3.832-1.185,5.258,5.258,0,0,1-1.185-3.832v-90.3a5.258,5.258,0,0,1,1.185-3.832,5.258,5.258,0,0,1,3.832-1.185H558.85q17.419,0,25.85,6.968T593.131.383V43.862q0,14.493-8.431,21.46T558.85,72.29ZM538.5-1.428v47.38h16.583a6.567,6.567,0,0,0,4.947-1.672q1.6-1.672,1.6-5.156V5.261q0-3.484-1.6-5.086a6.741,6.741,0,0,0-4.947-1.6Zm142,73.718h-64.66a5.258,5.258,0,0,1-3.832-1.185,5.258,5.258,0,0,1-1.185-3.832v-90.3a5.258,5.258,0,0,1,1.185-3.832,5.258,5.258,0,0,1,3.832-1.185h64.66a5.258,5.258,0,0,1,3.832,1.185,5.258,5.258,0,0,1,1.185,3.832v16.3a5.258,5.258,0,0,1-1.185,3.832,5.258,5.258,0,0,1-3.832,1.185H642.045V9.023h27.174a5.258,5.258,0,0,1,3.832,1.185,5.258,5.258,0,0,1,1.185,3.832V28.951a5.258,5.258,0,0,1-1.185,3.832,5.258,5.258,0,0,1-3.832,1.185H642.045V45.952h38.462a5.258,5.258,0,0,1,3.832,1.185,5.258,5.258,0,0,1,1.185,3.832v16.3a5.258,5.258,0,0,1-1.185,3.832A5.258,5.258,0,0,1,680.506,72.29Zm51.422-5.017a5.258,5.258,0,0,1-1.185,3.832,5.258,5.258,0,0,1-3.832,1.185H705.729a5.258,5.258,0,0,1-3.832-1.185,5.258,5.258,0,0,1-1.185-3.832V52.362a31.133,31.133,0,0,1,1.115-9.615,31.583,31.583,0,0,1,4.181-7.525L717.3,20.032,706.008,4.843a27.809,27.809,0,0,1-4.25-7.525,33.092,33.092,0,0,1-1.045-9.615v-10.73A5.258,5.258,0,0,1,701.9-26.86a5.258,5.258,0,0,1,3.832-1.185h21.46a5.259,5.259,0,0,1,3.832,1.185,5.258,5.258,0,0,1,1.184,3.832v9.615q0,1.394.139,2.926a6,6,0,0,0,1.115,2.926l6.132,8.779a7.059,7.059,0,0,0,1.463,1.742,2.874,2.874,0,0,0,1.881.627h1.672a2.6,2.6,0,0,0,1.812-.627,12.274,12.274,0,0,0,1.533-1.742l6.271-8.779a6,6,0,0,0,1.115-2.926q.139-1.533.139-2.926v-9.615a5.258,5.258,0,0,1,1.185-3.832,5.258,5.258,0,0,1,3.832-1.185h21.182a5.258,5.258,0,0,1,3.832,1.185,5.258,5.258,0,0,1,1.185,3.832V-12.3a31.13,31.13,0,0,1-1.115,9.615A31.584,31.584,0,0,1,781.4,4.843L770.111,20.172,781.4,35.222a27.812,27.812,0,0,1,4.25,7.525,33.092,33.092,0,0,1,1.045,9.615V67.273a5.258,5.258,0,0,1-1.185,3.832,5.258,5.258,0,0,1-3.832,1.185H760.5a5.258,5.258,0,0,1-3.832-1.185,5.258,5.258,0,0,1-1.185-3.832v-13.8q0-1.394-.139-2.926a6,6,0,0,0-1.115-2.926l-6.132-8.779a8.1,8.1,0,0,0-1.533-1.812,2.812,2.812,0,0,0-1.812-.557H742.8a2.811,2.811,0,0,0-1.812.557,8.1,8.1,0,0,0-1.533,1.812l-6.271,8.779a6,6,0,0,0-1.115,2.926q-.139,1.533-.139,2.926Z" transform="translate(4231 146.662)" fill="#e90"/>
  </g>
</svg>
